<svg width="35" height="35" viewBox="0 0 35 35" fill="none" xmlns="http://www.w3.org/2000/svg">
<path fill-rule="evenodd" clip-rule="evenodd" d="M10.8958 5.83722C8.08873 5.85704 6.55378 5.99835 5.54657 7.00556C4.375 8.17713 4.375 10.0627 4.375 13.834V14.084C4.375 14.3197 4.375 14.4375 4.44822 14.5108C4.52145 14.584 4.6393 14.584 4.875 14.584H30.125C30.3607 14.584 30.4786 14.584 30.5518 14.5108C30.625 14.4375 30.625 14.3197 30.625 14.084V13.834C30.625 10.0627 30.625 8.17713 29.4534 7.00556C28.4462 5.99835 26.9113 5.85704 24.1042 5.83722L24.1042 9.47982C24.1042 10.3082 23.4326 10.9798 22.6042 10.9798C21.7757 10.9798 21.1042 10.3082 21.1042 9.47982L21.1042 5.83398H13.8958L13.8958 9.47982C13.8958 10.3082 13.2243 10.9798 12.3958 10.9798C11.5674 10.9798 10.8958 10.3082 10.8958 9.47982L10.8958 5.83722Z" fill="#1B9FBC"/>
<path d="M4.375 16.541C4.375 16.3053 4.375 16.1875 4.44822 16.1142C4.52145 16.041 4.6393 16.041 4.875 16.041H30.125C30.3607 16.041 30.4786 16.041 30.5518 16.1142C30.625 16.1875 30.625 16.3053 30.625 16.541V21.166C30.625 24.9373 30.625 26.8229 29.4534 27.9944C28.2819 29.166 26.3962 29.166 22.625 29.166H12.375C8.60376 29.166 6.71815 29.166 5.54657 27.9944C4.375 26.8229 4.375 24.9373 4.375 21.166V16.541Z" fill="#1B9FBC"/>
<path d="M12.396 3.64648L12.396 9.47982" stroke="#1B9FBC" stroke-linecap="round"/>
<path d="M22.604 3.64648L22.604 9.47982" stroke="#1B9FBC" stroke-linecap="round"/>
</svg>
