<svg width="35" height="35" viewBox="0 0 35 35" fill="none" xmlns="http://www.w3.org/2000/svg">
<path fill-rule="evenodd" clip-rule="evenodd" d="M10.8958 5.83673C8.08873 5.85656 6.55378 5.99786 5.54657 7.00507C4.375 8.17664 4.375 10.0623 4.375 13.8335V14.0835C4.375 14.3192 4.375 14.437 4.44822 14.5103C4.52145 14.5835 4.6393 14.5835 4.875 14.5835H30.125C30.3607 14.5835 30.4786 14.5835 30.5518 14.5103C30.625 14.437 30.625 14.3192 30.625 14.0835V13.8335C30.625 10.0623 30.625 8.17664 29.4534 7.00507C28.4462 5.99786 26.9113 5.85656 24.1042 5.83673L24.1042 9.47933C24.1042 10.3078 23.4326 10.9793 22.6042 10.9793C21.7757 10.9793 21.1042 10.3078 21.1042 9.47933L21.1042 5.8335H13.8958L13.8958 9.47933C13.8958 10.3078 13.2243 10.9793 12.3958 10.9793C11.5674 10.9793 10.8958 10.3078 10.8958 9.47933L10.8958 5.83673Z" fill="white"/>
<path d="M4.375 16.5415C4.375 16.3058 4.375 16.188 4.44822 16.1147C4.52145 16.0415 4.6393 16.0415 4.875 16.0415H30.125C30.3607 16.0415 30.4786 16.0415 30.5518 16.1147C30.625 16.188 30.625 16.3058 30.625 16.5415V21.1665C30.625 24.9377 30.625 26.8234 29.4534 27.9949C28.2819 29.1665 26.3962 29.1665 22.625 29.1665H12.375C8.60376 29.1665 6.71815 29.1665 5.54657 27.9949C4.375 26.8234 4.375 24.9377 4.375 21.1665V16.5415Z" fill="white"/>
<path d="M12.396 3.646L12.396 9.47933" stroke="white" stroke-linecap="round"/>
<path d="M22.604 3.646L22.604 9.47933" stroke="white" stroke-linecap="round"/>
</svg>
