<svg width="35" height="35" viewBox="0 0 35 35" fill="none" xmlns="http://www.w3.org/2000/svg">
<path d="M4.375 11.666H27.425C28.5451 11.666 29.1052 11.666 29.533 11.884C29.9093 12.0757 30.2153 12.3817 30.407 12.758C30.625 13.1859 30.625 13.7459 30.625 14.866V25.966C30.625 27.0861 30.625 27.6462 30.407 28.074C30.2153 28.4503 29.9093 28.7563 29.533 28.948C29.1052 29.166 28.5451 29.166 27.425 29.166H7.575C6.4549 29.166 5.89484 29.166 5.46702 28.948C5.09069 28.7563 4.78473 28.4503 4.59299 28.074C4.375 27.6462 4.375 27.0861 4.375 25.966V11.666Z" fill="#1B9FBC"/>
<path d="M4.375 11.291C4.375 9.4054 4.375 8.46259 4.96079 7.8768C5.54657 7.29102 6.48938 7.29102 8.375 7.29102H12.9265C13.744 7.29102 14.1527 7.29102 14.5203 7.44326C14.8878 7.5955 15.1768 7.88453 15.7549 8.46259L18.9583 11.666H4.375V11.291Z" fill="#1B9FBC"/>
<circle cx="16.7708" cy="19.6868" r="3.14583" stroke="white"/>
<path d="M20.4165 23.334L22.604 25.5215" stroke="white" stroke-linecap="round"/>
</svg>
