<svg width="35" height="35" viewBox="0 0 35 35" fill="none" xmlns="http://www.w3.org/2000/svg">
<path d="M7.2915 19.5586C7.2915 18.5495 7.2915 18.045 7.51317 17.6142C7.73483 17.1835 8.14541 16.8902 8.96655 16.3037L16.3374 11.0388C16.8987 10.6379 17.1794 10.4374 17.4998 10.4374C17.8203 10.4374 18.101 10.6379 18.6623 11.0388L26.0331 16.3037C26.8543 16.8902 27.2648 17.1835 27.4865 17.6142C27.7082 18.045 27.7082 18.5495 27.7082 19.5586V28.6252C27.7082 29.568 27.7082 30.0394 27.4153 30.3323C27.1224 30.6252 26.651 30.6252 25.7082 30.6252H9.2915C8.34869 30.6252 7.87729 30.6252 7.5844 30.3323C7.2915 30.0394 7.2915 29.568 7.2915 28.6252V19.5586Z" fill="white"/>
<path d="M4.375 18.3451C4.375 18.612 4.375 18.7454 4.4591 18.7865C4.54319 18.8277 4.64852 18.7458 4.85918 18.5819L16.2721 9.70518C16.862 9.24641 17.1569 9.01702 17.5 9.01702C17.8431 9.01702 18.138 9.24641 18.7279 9.70518L30.1408 18.5819C30.3515 18.7458 30.4568 18.8277 30.5409 18.7865C30.625 18.7454 30.625 18.612 30.625 18.3451V17.02C30.625 16.5396 30.625 16.2995 30.5233 16.0916C30.4216 15.8837 30.232 15.7362 29.8529 15.4413L18.7279 6.78851C18.138 6.32974 17.8431 6.10036 17.5 6.10036C17.1569 6.10036 16.862 6.32974 16.2721 6.78851L5.14712 15.4413C4.76795 15.7362 4.57837 15.8837 4.47668 16.0916C4.375 16.2995 4.375 16.5396 4.375 17.02V18.3451Z" fill="white"/>
<path d="M19.1457 21.875H15.854C14.7494 21.875 13.854 22.7704 13.854 23.875V30.475C13.854 30.5578 13.9212 30.625 14.004 30.625H20.9957C21.0785 30.625 21.1457 30.5578 21.1457 30.475V23.875C21.1457 22.7704 20.2502 21.875 19.1457 21.875Z" fill="#1B9FBC"/>
<rect x="23.3335" y="7.2915" width="2.91667" height="5.83333" rx="0.5" fill="white"/>
</svg>
