<svg width="35" height="35" viewBox="0 0 35 35" fill="none" xmlns="http://www.w3.org/2000/svg">
<path d="M7.2915 19.5581C7.2915 18.549 7.2915 18.0445 7.51317 17.6137C7.73483 17.183 8.14541 16.8897 8.96655 16.3032L16.3374 11.0383C16.8987 10.6374 17.1794 10.4369 17.4998 10.4369C17.8203 10.4369 18.101 10.6374 18.6623 11.0383L26.0331 16.3032C26.8543 16.8897 27.2648 17.183 27.4865 17.6137C27.7082 18.0445 27.7082 18.549 27.7082 19.5581V28.6247C27.7082 29.5675 27.7082 30.0389 27.4153 30.3318C27.1224 30.6247 26.651 30.6247 25.7082 30.6247H9.2915C8.34869 30.6247 7.87729 30.6247 7.5844 30.3318C7.2915 30.0389 7.2915 29.5675 7.2915 28.6247V19.5581Z" fill="#1B9FBC"/>
<path d="M4.375 18.3446C4.375 18.6115 4.375 18.7449 4.4591 18.7861C4.54319 18.8272 4.64852 18.7453 4.85918 18.5814L16.2721 9.70469C16.862 9.24592 17.1569 9.01654 17.5 9.01654C17.8431 9.01654 18.138 9.24592 18.7279 9.70469L30.1408 18.5814C30.3515 18.7453 30.4568 18.8272 30.5409 18.7861C30.625 18.7449 30.625 18.6115 30.625 18.3446V17.0195C30.625 16.5392 30.625 16.299 30.5233 16.0911C30.4216 15.8832 30.232 15.7357 29.8529 15.4408L18.7279 6.78803C18.138 6.32926 17.8431 6.09987 17.5 6.09987C17.1569 6.09987 16.862 6.32926 16.2721 6.78803L5.14712 15.4408C4.76795 15.7357 4.57837 15.8832 4.47668 16.0911C4.375 16.299 4.375 16.5392 4.375 17.0195V18.3446Z" fill="#1B9FBC"/>
<path d="M19.1457 21.875H15.854C14.7494 21.875 13.854 22.7704 13.854 23.875V30.475C13.854 30.5578 13.9212 30.625 14.004 30.625H20.9957C21.0785 30.625 21.1457 30.5578 21.1457 30.475V23.875C21.1457 22.7704 20.2502 21.875 19.1457 21.875Z" fill="white"/>
<rect x="23.3335" y="7.29199" width="2.91667" height="5.83333" rx="0.5" fill="#1B9FBC"/>
</svg>
