<svg width="35" height="35" viewBox="0 0 35 35" fill="none" xmlns="http://www.w3.org/2000/svg">
<path fill-rule="evenodd" clip-rule="evenodd" d="M7.00507 4.08857C5.8335 5.26014 5.8335 7.14575 5.8335 10.917V24.0837C5.8335 27.8549 5.8335 29.7405 7.00507 30.9121C8.17664 32.0837 10.0623 32.0837 13.8335 32.0837H21.1668C24.9381 32.0837 26.8237 32.0837 27.9953 30.9121C29.1668 29.7405 29.1668 27.8549 29.1668 24.0837V10.917C29.1668 7.14576 29.1668 5.26014 27.9953 4.08857C26.8237 2.91699 24.9381 2.91699 21.1668 2.91699H13.8335C10.0623 2.91699 8.17664 2.91699 7.00507 4.08857ZM11.6668 16.5003C11.1145 16.5003 10.6668 16.948 10.6668 17.5003C10.6668 18.0526 11.1145 18.5003 11.6668 18.5003H17.5002C18.0524 18.5003 18.5002 18.0526 18.5002 17.5003C18.5002 16.948 18.0524 16.5003 17.5002 16.5003H11.6668ZM11.6668 20.8753C11.1145 20.8753 10.6668 21.323 10.6668 21.8753C10.6668 22.4276 11.1145 22.8753 11.6668 22.8753L20.4168 22.8753C20.9691 22.8753 21.4168 22.4276 21.4168 21.8753C21.4168 21.323 20.9691 20.8753 20.4168 20.8753L11.6668 20.8753ZM11.6668 25.2503C11.1145 25.2503 10.6668 25.698 10.6668 26.2503C10.6668 26.8026 11.1145 27.2503 11.6668 27.2503H17.5002C18.0524 27.2503 18.5002 26.8026 18.5002 26.2503C18.5002 25.698 18.0524 25.2503 17.5002 25.2503H11.6668Z" fill="white"/>
<path d="M26.25 4.375L26.25 13.125" stroke="#1B9FBC" stroke-width="2" stroke-linecap="round"/>
<path d="M30.625 8.75L21.875 8.75" stroke="#1B9FBC" stroke-width="2" stroke-linecap="round"/>
</svg>
