<svg width="35" height="35" viewBox="0 0 35 35" fill="none" xmlns="http://www.w3.org/2000/svg">
<path d="M12.7363 17.8129L12.0826 17.0561L12.7363 17.8129ZM14.1252 7.375C14.1252 6.27043 15.0206 5.375 16.1252 5.375V3.375C13.916 3.375 12.1252 5.16586 12.1252 7.375H14.1252ZM14.1252 16.9999V7.375H12.1252V16.9999H14.1252ZM11.2085 23.3333C11.2085 21.43 12.0524 19.7249 13.3899 18.5697L12.0826 17.0561C10.324 18.5751 9.2085 20.8245 9.2085 23.3333H11.2085ZM17.5002 29.625C14.0254 29.625 11.2085 26.8081 11.2085 23.3333H9.2085C9.2085 27.9127 12.9208 31.625 17.5002 31.625V29.625ZM23.7918 23.3333C23.7918 26.8081 20.975 29.625 17.5002 29.625V31.625C22.0795 31.625 25.7918 27.9127 25.7918 23.3333H23.7918ZM21.6104 18.5697C22.9479 19.7249 23.7918 21.43 23.7918 23.3333H25.7918C25.7918 20.8245 24.6763 18.5751 22.9177 17.0561L21.6104 18.5697ZM20.8752 7.375V16.9999H22.8752V7.375H20.8752ZM18.8752 5.375C19.9797 5.375 20.8752 6.27043 20.8752 7.375H22.8752C22.8752 5.16586 21.0843 3.375 18.8752 3.375V5.375ZM16.1252 5.375H18.8752V3.375H16.1252V5.375ZM22.9177 17.0561C22.8966 17.0378 22.8846 17.0201 22.879 17.0086C22.8739 16.9981 22.8752 16.9956 22.8752 16.9999H20.8752C20.8752 17.6406 21.1809 18.1987 21.6104 18.5697L22.9177 17.0561ZM12.1252 16.9999C12.1252 16.9956 12.1264 16.9981 12.1213 17.0086C12.1157 17.0201 12.1038 17.0378 12.0826 17.0561L13.3899 18.5697C13.8195 18.1987 14.1252 17.6406 14.1252 16.9999H12.1252Z" fill="#1B9FBC"/>
<circle cx="17.5002" cy="23.3332" r="2.91667" fill="#1B9FBC"/>
</svg>
