<svg width="35" height="35" viewBox="0 0 35 35" fill="none" xmlns="http://www.w3.org/2000/svg">
<path d="M4.375 17.5C4.375 10.2513 10.2513 4.375 17.5 4.375C24.7487 4.375 30.625 10.2513 30.625 17.5C30.625 24.7487 24.7487 30.625 17.5 30.625C10.2513 30.625 4.375 24.7487 4.375 17.5Z" fill="#1B75BC" fill-opacity="0.21"/>
<circle cx="17.4998" cy="14.5833" r="5.83333" fill="#1B9FBC"/>
<path fill-rule="evenodd" clip-rule="evenodd" d="M26.6167 26.6841C26.6739 26.7811 26.6562 26.9042 26.5749 26.9821C24.2177 29.2387 21.0206 30.625 17.4998 30.625C13.979 30.625 10.782 29.2387 8.42484 26.9822C8.34355 26.9043 8.32584 26.7812 8.38299 26.6843C10.0648 23.8313 13.5158 21.875 17.4999 21.875C21.4839 21.875 24.9349 23.8312 26.6167 26.6841Z" fill="#1B9FBC"/>
</svg>
